<svg width="256" height="256" viewBox="0 0 256 256" xmlns="http://www.w3.org/2000/svg">
  <!-- Background circle -->
  <circle cx="128" cy="128" r="120" fill="#000000" stroke="#FF0000" stroke-width="2"/>
  
  <!-- Outer target ring -->
  <circle cx="128" cy="128" r="90" fill="none" stroke="#FF0000" stroke-width="3" opacity="0.6"/>
  
  <!-- Middle target ring -->
  <circle cx="128" cy="128" r="60" fill="none" stroke="#FF0000" stroke-width="3" opacity="0.8"/>
  
  <!-- Inner target ring -->
  <circle cx="128" cy="128" r="30" fill="none" stroke="#FF0000" stroke-width="3"/>
  
  <!-- Center dot -->
  <circle cx="128" cy="128" r="8" fill="#FF0000"/>
  
  <!-- Crosshair - Vertical line -->
  <line x1="128" y1="20" x2="128" y2="236" stroke="#FF0000" stroke-width="2"/>
  
  <!-- Crosshair - Horizontal line -->
  <line x1="20" y1="128" x2="236" y2="128" stroke="#FF0000" stroke-width="2"/>
  
  <!-- Tactical markers - top -->
  <line x1="128" y1="15" x2="128" y2="35" stroke="#FF0000" stroke-width="4"/>
  
  <!-- Tactical markers - bottom -->
  <line x1="128" y1="221" x2="128" y2="241" stroke="#FF0000" stroke-width="4"/>
  
  <!-- Tactical markers - left -->
  <line x1="15" y1="128" x2="35" y2="128" stroke="#FF0000" stroke-width="4"/>
  
  <!-- Tactical markers - right -->
  <line x1="221" y1="128" x2="241" y2="128" stroke="#FF0000" stroke-width="4"/>
  
  <!-- Corner brackets - top left -->
  <path d="M 45 45 L 45 65 M 45 45 L 65 45" stroke="#FF0000" stroke-width="2" fill="none"/>
  
  <!-- Corner brackets - top right -->
  <path d="M 211 45 L 211 65 M 211 45 L 191 45" stroke="#FF0000" stroke-width="2" fill="none"/>
  
  <!-- Corner brackets - bottom left -->
  <path d="M 45 211 L 45 191 M 45 211 L 65 211" stroke="#FF0000" stroke-width="2" fill="none"/>
  
  <!-- Corner brackets - bottom right -->
  <path d="M 211 211 L 211 191 M 211 211 L 191 211" stroke="#FF0000" stroke-width="2" fill="none"/>
</svg>
